# xmcd
#
# Track frame offsets: 
#        150
#        14787
#        34258
#        52366
#        64633
#        85468
#        105120
#        127039
#        144755
#        171615
#        194555
#
# Disc length: 2930 seconds
#
# Revision: 0
# Processed by: cddbd v1.5.2PL0 Copyright (c) Steve Scherf et al.
# Submitted via: ExactAudioCopy v1.0b3
#
DISCID=a40b700b
DTITLE=Ian Parker - The Bare Bones
DYEAR=2011
DGENRE=Blues
TTITLE0=Gates Of Hell
TTITLE1=Misfits And Fools
TTITLE2=Told My Girl To Go Away
TTITLE3=Humanity Blues
TTITLE4=Everything And More
TTITLE5=Your Love Is My Home
TTITLE6=Grow
TTITLE7=Your Basket Has Never Been So Full
TTITLE8=Lost
TTITLE9=World Of Pretty Faces
TTITLE10=Hallelujah
EXTD=
EXTT0=
EXTT1=
EXTT2=
EXTT3=
EXTT4=
EXTT5=
EXTT6=
EXTT7=
EXTT8=
EXTT9=
EXTT10=
PLAYORDER=
